<?xml version="1.0" encoding="UTF-8" standalone="no" ?>
<!DOCTYPE svg PUBLIC "-//W3C//DTD SVG 1.1//EN" "http://www.w3.org/Graphics/SVG/1.1/DTD/svg11.dtd">
<svg xmlns="http://www.w3.org/2000/svg" xmlns:xlink="http://www.w3.org/1999/xlink" version="1.1" width="640" height="640" viewBox="0 0 640 640" xml:space="preserve">
<desc>Created with Fabric.js 5.3.0</desc>
<defs>
</defs>
<g transform="matrix(1.5511879225 0 0 1.5511879225 306.392485858 317.1098861287)" id="2G9-qkJ05dayjXSWEVWMA"  >
<g style=""   >
		<g transform="matrix(0.7855531306 -0.4908680756 1.843459208 2.9501514234 84.9365830001 111.5276787966)" id="xQYVJJP0MYvfXLjhfkfi8"  >
<path style="stroke: rgb(213,64,142); stroke-width: 0; stroke-dasharray: none; stroke-linecap: butt; stroke-dashoffset: 0; stroke-linejoin: miter; stroke-miterlimit: 4; fill: rgb(197,196,196); fill-rule: nonzero; opacity: 1;"  transform=" translate(0, 0)" d="M -28.84507 -25.5864 C -28.84507 -27.386110000000002 -23.36596 -28.84506 -16.60714 -28.84506 L 16.60714 -28.84506 L 16.60714 -28.84506 C 23.36596 -28.84506 28.84507 -27.38611 28.84507 -25.5864 L 28.84507 25.586409999999997 L 28.84507 25.586409999999997 C 28.84507 27.38612 23.36596 28.845069999999996 16.60714 28.845069999999996 L -16.60714 28.845069999999996 L -16.60714 28.845069999999996 C -23.36596 28.845069999999996 -28.84507 27.386119999999995 -28.84507 25.586409999999997 z" stroke-linecap="round" />
</g>
		<g transform="matrix(0.8487848738 -0.0444829303 0.0444829303 0.8487848738 -21.2698576323 -71.2833529445)" id="C98w65l4Vrc0croMqeUyw"  >
<path style="stroke: rgb(101,102,11); stroke-width: 0; stroke-dasharray: none; stroke-linecap: butt; stroke-dashoffset: 0; stroke-linejoin: miter; stroke-miterlimit: 4; fill: rgb(197,196,196); fill-rule: nonzero; opacity: 1;"  transform=" translate(-156.16902, -156.16902)" d="M 156.16902 0 C 242.37431999999998 0 312.33804 69.96372 312.33804 156.16902 C 312.33804 242.37431999999998 242.37431999999998 312.33804 156.16902 312.33804 C 69.96372 312.33804 0 242.37431999999998 0 156.16902 C 0 69.96372 69.96372 0 156.16902 0 z M 31.09995 149.61443 C 27.48182 218.65256 80.5763 277.61996 149.61443 281.23809 C 218.65256 284.85622 277.61996 231.76174 281.23809 162.72361 C 284.85622 93.68548000000001 231.76174 34.718080000000015 162.72361 31.099950000000007 C 93.68548000000001 27.481820000000006 34.718080000000015 80.5763 31.099950000000007 149.61443000000003 z" stroke-linecap="round" />
</g>
</g>
</g>
</svg>